<mxfile host="app.diagrams.net" modified="2022-07-26T09:26:41.264Z" agent="5.0 (Macintosh; Intel Mac OS X 10_15_7) AppleWebKit/605.1.15 (KHTML, like Gecko) Version/15.5 Safari/605.1.15" etag="pxJlpTR3fU0BxDZtnPFQ" version="20.1.3" type="github">
  <diagram id="IlniFhYYJK76ihj-TSg7" name="第 1 页">
    <mxGraphModel dx="1426" dy="825" grid="1" gridSize="10" guides="1" tooltips="1" connect="1" arrows="1" fold="1" page="1" pageScale="1" pageWidth="827" pageHeight="1169" math="0" shadow="0">
      <root>
        <mxCell id="0" />
        <mxCell id="1" parent="0" />
        <mxCell id="VtHMoHN4IguyYlOyCSEh-1" value="" style="shape=ext;double=1;rounded=0;whiteSpace=wrap;html=1;labelBackgroundColor=#FFFFFF;fontFamily=Helvetica;fontSize=16;fontColor=#333333;fillColor=#f5f5f5;strokeColor=#666666;" vertex="1" parent="1">
          <mxGeometry x="100" y="60" width="580" height="880" as="geometry" />
        </mxCell>
        <mxCell id="VtHMoHN4IguyYlOyCSEh-2" value="RestService" style="text;strokeColor=none;fillColor=none;html=1;fontSize=24;fontStyle=1;verticalAlign=middle;align=center;labelBackgroundColor=#FFFFFF;fontFamily=Helvetica;fontColor=#000000;" vertex="1" parent="1">
          <mxGeometry x="130" y="70" width="100" height="40" as="geometry" />
        </mxCell>
        <mxCell id="VtHMoHN4IguyYlOyCSEh-3" value="User" style="shape=ext;double=1;rounded=1;whiteSpace=wrap;html=1;labelBackgroundColor=#FFFFFF;fontFamily=Helvetica;fontSize=16;fontColor=#000000;fontStyle=4" vertex="1" parent="1">
          <mxGeometry x="130" y="130" width="120" height="80" as="geometry" />
        </mxCell>
        <mxCell id="VtHMoHN4IguyYlOyCSEh-4" value="Role" style="shape=ext;double=1;rounded=1;whiteSpace=wrap;html=1;labelBackgroundColor=#FFFFFF;fontFamily=Helvetica;fontSize=16;fontColor=#000000;" vertex="1" parent="1">
          <mxGeometry x="130" y="230" width="120" height="80" as="geometry" />
        </mxCell>
        <mxCell id="VtHMoHN4IguyYlOyCSEh-5" value="Permission" style="shape=ext;double=1;rounded=1;whiteSpace=wrap;html=1;labelBackgroundColor=#FFFFFF;fontFamily=Helvetica;fontSize=16;fontColor=#000000;" vertex="1" parent="1">
          <mxGeometry x="130" y="330" width="120" height="80" as="geometry" />
        </mxCell>
        <mxCell id="VtHMoHN4IguyYlOyCSEh-10" value="Oauth" style="shape=ext;double=1;rounded=1;whiteSpace=wrap;html=1;labelBackgroundColor=#FFFFFF;fontFamily=Helvetica;fontSize=16;fontColor=#000000;" vertex="1" parent="1">
          <mxGeometry x="130" y="430" width="120" height="80" as="geometry" />
        </mxCell>
        <mxCell id="VtHMoHN4IguyYlOyCSEh-11" value="Schedule Cluster" style="shape=ext;double=1;rounded=1;whiteSpace=wrap;html=1;labelBackgroundColor=#FFFFFF;fontFamily=Helvetica;fontSize=16;fontColor=#000000;" vertex="1" parent="1">
          <mxGeometry x="270" y="430" width="120" height="80" as="geometry" />
        </mxCell>
        <mxCell id="VtHMoHN4IguyYlOyCSEh-12" value="Schedule" style="shape=ext;double=1;rounded=1;whiteSpace=wrap;html=1;labelBackgroundColor=#FFFFFF;fontFamily=Helvetica;fontSize=16;fontColor=#000000;" vertex="1" parent="1">
          <mxGeometry x="130" y="530" width="120" height="80" as="geometry" />
        </mxCell>
        <mxCell id="VtHMoHN4IguyYlOyCSEh-13" value="application" style="shape=ext;double=1;rounded=1;whiteSpace=wrap;html=1;labelBackgroundColor=#FFFFFF;fontFamily=Helvetica;fontSize=16;fontColor=#000000;" vertex="1" parent="1">
          <mxGeometry x="270" y="530" width="120" height="80" as="geometry" />
        </mxCell>
        <mxCell id="VtHMoHN4IguyYlOyCSEh-14" value="seed peer cluster" style="shape=ext;double=1;rounded=1;whiteSpace=wrap;html=1;labelBackgroundColor=#FFFFFF;fontFamily=Helvetica;fontSize=16;fontColor=#000000;" vertex="1" parent="1">
          <mxGeometry x="270" y="330" width="120" height="80" as="geometry" />
        </mxCell>
        <mxCell id="VtHMoHN4IguyYlOyCSEh-15" value="seed peer" style="shape=ext;double=1;rounded=1;whiteSpace=wrap;html=1;labelBackgroundColor=#FFFFFF;fontFamily=Helvetica;fontSize=16;fontColor=#000000;" vertex="1" parent="1">
          <mxGeometry x="270" y="230" width="120" height="80" as="geometry" />
        </mxCell>
        <mxCell id="VtHMoHN4IguyYlOyCSEh-16" value="Security Rule" style="shape=ext;double=1;rounded=1;whiteSpace=wrap;html=1;labelBackgroundColor=#FFFFFF;fontFamily=Helvetica;fontSize=16;fontColor=#000000;" vertex="1" parent="1">
          <mxGeometry x="270" y="130" width="120" height="80" as="geometry" />
        </mxCell>
        <mxCell id="VtHMoHN4IguyYlOyCSEh-17" value="Security Group" style="shape=ext;double=1;rounded=1;whiteSpace=wrap;html=1;labelBackgroundColor=#FFFFFF;fontFamily=Helvetica;fontSize=16;fontColor=#000000;" vertex="1" parent="1">
          <mxGeometry x="130" y="630" width="120" height="80" as="geometry" />
        </mxCell>
        <mxCell id="VtHMoHN4IguyYlOyCSEh-18" value="Bucket" style="shape=ext;double=1;rounded=1;whiteSpace=wrap;html=1;labelBackgroundColor=#FFFFFF;fontFamily=Helvetica;fontSize=16;fontColor=#000000;" vertex="1" parent="1">
          <mxGeometry x="270" y="630" width="120" height="80" as="geometry" />
        </mxCell>
        <mxCell id="VtHMoHN4IguyYlOyCSEh-19" value="Config" style="shape=ext;double=1;rounded=1;whiteSpace=wrap;html=1;labelBackgroundColor=#FFFFFF;fontFamily=Helvetica;fontSize=16;fontColor=#000000;" vertex="1" parent="1">
          <mxGeometry x="130" y="730" width="120" height="80" as="geometry" />
        </mxCell>
        <mxCell id="VtHMoHN4IguyYlOyCSEh-20" value="Job" style="shape=ext;double=1;rounded=1;whiteSpace=wrap;html=1;labelBackgroundColor=#FFFFFF;fontFamily=Helvetica;fontSize=16;fontColor=#000000;" vertex="1" parent="1">
          <mxGeometry x="130" y="840" width="120" height="80" as="geometry" />
        </mxCell>
        <mxCell id="VtHMoHN4IguyYlOyCSEh-21" value="" style="shape=curlyBracket;whiteSpace=wrap;html=1;rounded=1;flipH=1;labelBackgroundColor=#FFFFFF;fontFamily=Helvetica;fontSize=16;fontColor=#000000;" vertex="1" parent="1">
          <mxGeometry x="400" y="140" width="20" height="650" as="geometry" />
        </mxCell>
        <mxCell id="VtHMoHN4IguyYlOyCSEh-22" value="CRUD" style="shape=ext;double=1;rounded=1;whiteSpace=wrap;html=1;labelBackgroundColor=#FFFFFF;fontFamily=Helvetica;fontSize=16;fontColor=#000000;" vertex="1" parent="1">
          <mxGeometry x="440" y="430" width="120" height="80" as="geometry" />
        </mxCell>
        <mxCell id="VtHMoHN4IguyYlOyCSEh-23" value="任务队列&lt;br&gt;（依赖redis）" style="shape=ext;double=1;rounded=1;whiteSpace=wrap;html=1;labelBackgroundColor=#FFFFFF;fontFamily=Helvetica;fontSize=16;fontColor=#000000;" vertex="1" parent="1">
          <mxGeometry x="330" y="840" width="120" height="80" as="geometry" />
        </mxCell>
        <mxCell id="VtHMoHN4IguyYlOyCSEh-24" value="" style="endArrow=classic;html=1;rounded=0;fontFamily=Helvetica;fontSize=16;fontColor=#000000;exitX=1;exitY=0.5;exitDx=0;exitDy=0;entryX=0;entryY=0.5;entryDx=0;entryDy=0;" edge="1" parent="1" source="VtHMoHN4IguyYlOyCSEh-20" target="VtHMoHN4IguyYlOyCSEh-23">
          <mxGeometry width="50" height="50" relative="1" as="geometry">
            <mxPoint x="390" y="840" as="sourcePoint" />
            <mxPoint x="440" y="790" as="targetPoint" />
          </mxGeometry>
        </mxCell>
        <mxCell id="VtHMoHN4IguyYlOyCSEh-25" value="下发预热任务" style="text;html=1;strokeColor=none;fillColor=none;align=center;verticalAlign=middle;whiteSpace=wrap;rounded=0;labelBackgroundColor=#FFFFFF;fontFamily=Helvetica;fontSize=16;fontColor=#000000;" vertex="1" parent="1">
          <mxGeometry x="250" y="840" width="80" height="30" as="geometry" />
        </mxCell>
        <mxCell id="VtHMoHN4IguyYlOyCSEh-26" value="seed peer&lt;br&gt;做种" style="shape=ext;double=1;rounded=1;whiteSpace=wrap;html=1;labelBackgroundColor=#FFFFFF;fontFamily=Helvetica;fontSize=16;fontColor=#000000;" vertex="1" parent="1">
          <mxGeometry x="520" y="620" width="120" height="80" as="geometry" />
        </mxCell>
        <mxCell id="VtHMoHN4IguyYlOyCSEh-27" value="" style="endArrow=classic;html=1;rounded=0;fontFamily=Helvetica;fontSize=16;fontColor=#000000;exitX=1;exitY=0.5;exitDx=0;exitDy=0;entryX=0;entryY=0.5;entryDx=0;entryDy=0;" edge="1" parent="1" source="VtHMoHN4IguyYlOyCSEh-23" target="VtHMoHN4IguyYlOyCSEh-28">
          <mxGeometry width="50" height="50" relative="1" as="geometry">
            <mxPoint x="390" y="840" as="sourcePoint" />
            <mxPoint x="440" y="790" as="targetPoint" />
          </mxGeometry>
        </mxCell>
        <mxCell id="VtHMoHN4IguyYlOyCSEh-28" value="Schedule Job Worker" style="shape=ext;double=1;rounded=1;whiteSpace=wrap;html=1;labelBackgroundColor=#FFFFFF;fontFamily=Helvetica;fontSize=16;fontColor=#000000;" vertex="1" parent="1">
          <mxGeometry x="520" y="840" width="120" height="80" as="geometry" />
        </mxCell>
        <mxCell id="VtHMoHN4IguyYlOyCSEh-30" value="seed peer client" style="shape=ext;double=1;rounded=1;whiteSpace=wrap;html=1;labelBackgroundColor=#FFFFFF;fontFamily=Helvetica;fontSize=16;fontColor=#000000;" vertex="1" parent="1">
          <mxGeometry x="520" y="730" width="120" height="80" as="geometry" />
        </mxCell>
        <mxCell id="VtHMoHN4IguyYlOyCSEh-31" value="" style="endArrow=classic;startArrow=classic;html=1;rounded=0;fontFamily=Helvetica;fontSize=16;fontColor=#000000;exitX=0.5;exitY=0;exitDx=0;exitDy=0;entryX=0.5;entryY=1;entryDx=0;entryDy=0;" edge="1" parent="1" source="VtHMoHN4IguyYlOyCSEh-28" target="VtHMoHN4IguyYlOyCSEh-30">
          <mxGeometry width="50" height="50" relative="1" as="geometry">
            <mxPoint x="390" y="670" as="sourcePoint" />
            <mxPoint x="440" y="620" as="targetPoint" />
          </mxGeometry>
        </mxCell>
        <mxCell id="VtHMoHN4IguyYlOyCSEh-32" value="" style="endArrow=classic;html=1;rounded=0;fontFamily=Helvetica;fontSize=16;fontColor=#000000;exitX=0.5;exitY=0;exitDx=0;exitDy=0;entryX=0.5;entryY=1;entryDx=0;entryDy=0;" edge="1" parent="1" source="VtHMoHN4IguyYlOyCSEh-30" target="VtHMoHN4IguyYlOyCSEh-26">
          <mxGeometry width="50" height="50" relative="1" as="geometry">
            <mxPoint x="390" y="670" as="sourcePoint" />
            <mxPoint x="440" y="620" as="targetPoint" />
          </mxGeometry>
        </mxCell>
      </root>
    </mxGraphModel>
  </diagram>
</mxfile>
